<svg width="25" height="20" viewBox="0 0 25 20" fill="none" xmlns="http://www.w3.org/2000/svg">
<rect x="9" y="8" width="14" height="9" fill="#F3F9FF"/>
<rect x="6.5" y="5.5" width="4" height="4" fill="#F3F9FF" stroke="#E6AF45"/>
<rect x="20.5" y="5.5" width="4" height="4" fill="#F3F9FF" stroke="#E6AF45"/>
<rect x="20.5" y="15.5" width="4" height="4" fill="#F3F9FF" stroke="#E6AF45"/>
<rect x="6.5" y="15.5" width="4" height="4" fill="#F3F9FF" stroke="#E6AF45"/>
<line x1="8.5" y1="9" x2="8.5" y2="16" stroke="#E6AF45"/>
<line x1="12" y1="7.5" x2="21" y2="7.5" stroke="#E6AF45"/>
<line x1="11" y1="17.5" x2="21" y2="17.5" stroke="#E6AF45"/>
<line x1="22.5" y1="9" x2="22.5" y2="16" stroke="#E6AF45"/>
<rect x="3" y="3" width="13" height="9" fill="#F3F9FF"/>
<rect x="0.5" y="0.5" width="4" height="4" fill="#F3F9FF" stroke="#E6AF45"/>
<rect x="13.5" y="0.5" width="4" height="4" fill="#F3F9FF" stroke="#E6AF45"/>
<rect x="13.5" y="10.5" width="4" height="4" fill="#F3F9FF" stroke="#E6AF45"/>
<rect x="0.5" y="10.5" width="4" height="4" fill="#F3F9FF" stroke="#E6AF45"/>
<line x1="2.5" y1="4" x2="2.5" y2="11" stroke="#E6AF45"/>
<line x1="4" y1="2.5" x2="14" y2="2.5" stroke="#E6AF45"/>
<line x1="5" y1="12.5" x2="13" y2="12.5" stroke="#E6AF45"/>
<line x1="15.5" y1="4" x2="15.5" y2="11" stroke="#E6AF45"/>
</svg>
