<svg width="21" height="20" viewBox="0 0 21 20" fill="none" xmlns="http://www.w3.org/2000/svg">
<path d="M0 0H16.005C17.107 0 18 0.898 18 1.99V18.01C18 19.109 17.107 20 16.005 20H0V0ZM4 2H2V18H4V2ZM6 18H16V2H6V18ZM8 14C8 13.2044 8.31607 12.4413 8.87868 11.8787C9.44129 11.3161 10.2044 11 11 11C11.7956 11 12.5587 11.3161 13.1213 11.8787C13.6839 12.4413 14 13.2044 14 14H8ZM11 10C10.4696 10 9.96086 9.78929 9.58579 9.41421C9.21071 9.03914 9 8.53043 9 8C9 7.46957 9.21071 6.96086 9.58579 6.58579C9.96086 6.21071 10.4696 6 11 6C11.5304 6 12.0391 6.21071 12.4142 6.58579C12.7893 6.96086 13 7.46957 13 8C13 8.53043 12.7893 9.03914 12.4142 9.41421C12.0391 9.78929 11.5304 10 11 10ZM19 4H21V8H19V4ZM19 10H21V14H19V10Z" fill="#494949"/>
</svg>
