<svg width="42" height="25" viewBox="0 0 42 25" fill="none" xmlns="http://www.w3.org/2000/svg">
<path d="M6.48464 13.5648C5.7538 13.721 5.20566 14.3693 5.20566 15.1473C5.20566 15.5039 5.32354 15.8457 5.53572 16.1257L4.86087 20.1247C4.8314 20.2956 4.87855 20.4695 4.99054 20.6021C5.10252 20.7347 5.26755 20.8113 5.44142 20.8113H8.20566C8.37658 20.8113 8.53866 20.7376 8.65065 20.608C8.76263 20.4783 8.81273 20.3103 8.78916 20.1394L8.2145 15.9695C8.36185 15.7219 8.44141 15.4361 8.44141 15.1443C8.44141 14.5608 8.12904 14.051 7.66342 13.7652V11.6021L11.3059 13.1817V22.2259C11.3059 23.3398 12.2135 24.2475 13.3275 24.2475H29.9483C31.0622 24.2475 31.9699 23.3398 31.9699 22.2259V12.6306L40.6457 8.86733C40.8696 8.77008 41.0111 8.54611 40.9993 8.30152C40.9905 8.05692 40.8313 7.84769 40.6015 7.76812L20.8687 1.03139C20.739 0.987187 20.5976 0.990134 20.4709 1.03729C13.7135 3.59524 2.6153 7.67382 1.58386 7.7357C1.30685 7.73865 1.06815 7.93315 1.01216 8.20427C0.956163 8.47833 1.09762 8.75535 1.354 8.86438L6.48464 11.0893V13.5648ZM6.1369 19.6325L6.74397 16.0343C6.77934 15.828 6.70271 15.6188 6.54063 15.4832C6.44044 15.3978 6.3815 15.2769 6.3815 15.1473C6.3815 14.9056 6.57894 14.7082 6.82059 14.7082C7.06224 14.7082 7.25969 14.9056 7.25969 15.1473C7.25969 15.2828 7.20075 15.3771 7.15065 15.4361C7.03867 15.5657 6.98857 15.7337 7.01214 15.9046L7.52786 19.6355H6.1369V19.6325ZM30.7911 22.2259C30.7911 22.6915 30.4139 23.0687 29.9483 23.0687H13.3275C12.8618 23.0687 12.4846 22.6915 12.4846 22.2259V13.6944L20.7656 17.2868C20.8392 17.3192 20.9188 17.3369 21.0013 17.3369C21.0838 17.3369 21.1604 17.3221 21.2371 17.2868L30.794 13.1404V22.2259H30.7911ZM3.37856 8.46065C7.64574 7.12863 17.8923 3.27402 20.6889 2.21607L38.7803 8.39287L21.0013 16.105L9.26067 11.0098L19.1742 9.70132C19.6074 9.96654 20.2528 10.1316 21.0013 10.1316C22.3687 10.1345 23.3972 9.58933 23.3972 8.86733C23.3972 8.14533 22.3658 7.60309 20.9984 7.60309C19.8196 7.60309 18.8913 8.00977 18.6585 8.58148L7.15949 10.0992L3.37856 8.46065ZM19.1919 8.86733C19.1919 8.59032 19.8962 8.19248 21.0013 8.19248C22.1064 8.19248 22.8078 8.59327 22.8078 8.86733C22.8078 9.14434 22.1035 9.54218 20.9984 9.54218C19.8933 9.54218 19.1919 9.14434 19.1919 8.86733Z" fill="#1C84FF" stroke="#1C84FF" stroke-width="0.5"/>
</svg>
