<svg width="31" height="29" viewBox="0 0 31 29" fill="none" xmlns="http://www.w3.org/2000/svg">
<g clip-path="url(#clip0_820_3)">
<path d="M27.6144 6.30051H21.2145V2.37478C21.2145 1.85515 20.7115 1.44995 20.068 1.44995C20.0013 1.44995 19.9345 1.45472 19.8678 1.46425C19.8058 1.45472 19.7438 1.44995 19.6842 1.44995H11.0629C11.0367 1.44995 11.0128 1.44995 10.989 1.45233C10.9604 1.44995 10.9342 1.44995 10.908 1.44995C10.2644 1.44995 9.76147 1.85755 9.76147 2.37478V6.29811H3.364C2.30808 6.30051 1.45 7.15859 1.45 8.21451V16.8359C1.45 17.8512 2.2461 18.6831 3.2472 18.7427V25.636C3.2472 26.6918 4.01709 27.55 4.96336 27.55H26.0173C26.9636 27.55 27.7336 26.6918 27.7336 25.636V18.7427C28.7346 18.6807 29.5307 17.8512 29.5307 16.8359V8.21451C29.5259 7.15859 28.6679 6.30051 27.6144 6.30051ZM10.7149 2.4439C10.7578 2.42244 10.8508 2.39622 10.9509 2.40337C10.9795 2.40576 11.0057 2.40576 11.0343 2.40337C11.0438 2.40337 11.0534 2.40337 11.0629 2.40337H19.6842C19.7081 2.40337 19.7344 2.40576 19.7605 2.41291C19.8273 2.42721 19.8963 2.4296 19.9632 2.41529C20.0847 2.38907 20.211 2.42006 20.261 2.44628V7.15859C20.2253 7.17765 20.1586 7.1991 20.068 7.1991C19.9774 7.1991 19.9107 7.17765 19.8749 7.15859V3.54272C19.8749 3.27814 19.6604 3.06601 19.3982 3.06601H11.5778C11.3156 3.06601 11.101 3.27814 11.101 3.54272V7.15619C11.0653 7.17526 10.9985 7.19672 10.908 7.19672C10.8174 7.19672 10.7507 7.17526 10.7149 7.15619V2.4439ZM18.9239 4.01942V6.29811H12.0545V4.01942H18.9239ZM26.7777 25.636C26.7777 26.1651 26.4368 26.5966 26.015 26.5966H4.96098C4.54147 26.5966 4.19824 26.1651 4.19824 25.636V18.7474H11.6874V19.6174C11.6874 20.6733 12.5455 21.5314 13.6014 21.5314H17.0146C18.0706 21.5314 18.9286 20.6733 18.9286 19.6174V18.7474H26.7777V25.636ZM12.6432 19.6199V16.9264C12.6432 16.3973 13.0746 15.9659 13.6038 15.9659H17.0146C17.5438 15.9659 17.9752 16.3973 17.9752 16.9264V19.6199C17.9752 20.149 17.5438 20.5804 17.0146 20.5804H13.6014C13.0722 20.5804 12.6432 20.149 12.6432 19.6199ZM28.5725 16.8359C28.5725 17.365 28.1412 17.7964 27.6119 17.7964H18.9286V16.9264C18.9286 15.8705 18.0706 15.0124 17.0146 15.0124H13.6014C12.5455 15.0124 11.6874 15.8705 11.6874 16.9264V17.7964H3.364C2.83485 17.7964 2.40342 17.365 2.40342 16.8359V8.21451C2.40342 7.68534 2.83485 7.25392 3.364 7.25392H9.76624C9.78531 7.75923 10.2787 8.15253 10.908 8.15253C11.5396 8.15253 12.033 7.75923 12.0497 7.25392H18.9263C18.9454 7.75923 19.4387 8.15253 20.068 8.15253C20.6996 8.15253 21.1931 7.75923 21.2097 7.25392H27.6119C28.1412 7.25392 28.5725 7.68534 28.5725 8.21451V16.8359Z" fill="#1C84FF" stroke="#1C84FF"/>
<path d="M23.2 7.9751H7.25V10.8751H23.2V7.9751Z" fill="#F0F8FF"/>
<path d="M11.6 3.91509C11.6 3.11427 12.2492 2.46509 13.05 2.46509H18.27C19.0708 2.46509 19.72 3.11427 19.72 3.91509V5.65509H11.6V3.91509Z" fill="#F0F8FF"/>
</g>
<defs>
<clipPath id="clip0_820_3">
<rect width="30.45" height="29" fill="white"/>
</clipPath>
</defs>
</svg>
