<svg width="17" height="20" viewBox="0 0 17 20" fill="none" xmlns="http://www.w3.org/2000/svg">
<path d="M14.1422 14.1421L8.28428 20L2.42637 14.1421C1.26781 12.9835 0.478818 11.5074 0.159176 9.90043C-0.160466 8.29344 0.00359613 6.62776 0.630616 5.11401C1.25764 3.60026 2.31945 2.30644 3.68179 1.39616C5.04413 0.485877 6.64581 1.52588e-05 8.28428 1.52588e-05C9.92274 1.52588e-05 11.5244 0.485877 12.8868 1.39616C14.2491 2.30644 15.3109 3.60026 15.9379 5.11401C16.565 6.62776 16.729 8.29344 16.4094 9.90043C16.0897 11.5074 15.3007 12.9835 14.1422 14.1421ZM8.28428 10.1252C8.77252 10.1252 9.24078 9.93121 9.58602 9.58596C9.93127 9.24072 10.1252 8.77246 10.1252 8.28421C10.1252 7.79596 9.93127 7.32771 9.58602 6.98247C9.24078 6.63722 8.77252 6.44327 8.28428 6.44327C7.79602 6.44327 7.32777 6.63722 6.98253 6.98247C6.63728 7.32771 6.44333 7.79596 6.44333 8.28421C6.44333 8.77246 6.63728 9.24072 6.98253 9.58596C7.32777 9.93121 7.79602 10.1252 8.28428 10.1252Z" fill="#FF9162"/>
</svg>
