<svg width="19" height="15" viewBox="0 0 19 15" fill="none" xmlns="http://www.w3.org/2000/svg">
<path d="M18.4479 1.78066C17.7569 2.0863 17.0242 2.28702 16.2739 2.37619C17.0647 1.90324 17.6566 1.1589 17.9392 0.281881C17.1971 0.723552 16.3834 1.03308 15.5354 1.20052C14.9657 0.591032 14.2107 0.186817 13.3876 0.0507149C12.5646 -0.0853868 11.7196 0.0542504 10.9841 0.447918C10.2485 0.841585 9.6637 1.46723 9.32043 2.22758C8.97716 2.98793 8.89472 3.84039 9.08591 4.65243C7.58089 4.57699 6.10856 4.18589 4.7645 3.5045C3.42045 2.82312 2.23471 1.86669 1.28428 0.697305C0.947862 1.27514 0.771072 1.93201 0.772018 2.60065C0.772018 3.91299 1.43995 5.07237 2.45543 5.75117C1.85448 5.73225 1.26675 5.56996 0.741246 5.27782V5.32489C0.741427 6.1989 1.04387 7.04597 1.5973 7.72245C2.15072 8.39893 2.92107 8.8632 3.77773 9.03654C3.21986 9.18772 2.63491 9.21001 2.06716 9.10171C2.30869 9.85403 2.77945 10.512 3.41352 10.9834C4.0476 11.4549 4.81323 11.7162 5.60324 11.7309C4.81808 12.3476 3.91908 12.8034 2.95763 13.0724C1.99619 13.3413 0.991158 13.4182 0 13.2985C1.7302 14.4112 3.74433 15.0019 5.80145 15C12.7641 15 16.5717 9.23204 16.5717 4.22976C16.5717 4.06685 16.5672 3.90213 16.5599 3.74103C17.301 3.20538 17.9407 2.54184 18.4488 1.78157L18.4479 1.78066Z" fill="#494949"/>
</svg>
