<svg width="27" height="26" viewBox="0 0 27 26" fill="none" xmlns="http://www.w3.org/2000/svg">
<path d="M26.25 19L26.25 23C26.25 23.6904 25.6904 24.25 25 24.25L6 24.25C4.20507 24.25 2.75 22.7949 2.75 21C2.75 19.2051 4.20507 17.75 6 17.75L25 17.75C25.6904 17.75 26.25 18.3096 26.25 19Z" fill="#FFEEEE" stroke="#F471FF" stroke-width="1.5"/>
<path d="M17.6296 3.8907L20.6254 6.56134C21.1408 7.02073 21.1861 7.81088 20.7267 8.32621L8.08804 22.504C6.89118 23.8466 4.83254 23.9647 3.48993 22.7679C2.14733 21.571 2.02918 19.5124 3.22604 18.1697L15.8647 3.99199C16.3241 3.47667 17.1143 3.43132 17.6296 3.8907Z" fill="#FFEEEE" stroke="#F471FF" stroke-width="1.5"/>
<path d="M3 0.75H7C7.69036 0.75 8.25 1.30964 8.25 2V21C8.25 22.7949 6.79493 24.25 5 24.25C3.20507 24.25 1.75 22.7949 1.75 21V2C1.75 1.30964 2.30964 0.75 3 0.75Z" fill="#FFEEEE" stroke="#F471FF" stroke-width="1.5"/>
<line x1="1" y1="7.25" x2="9" y2="7.25" stroke="#F471FF" stroke-width="1.5"/>
<line x1="1" y1="15.25" x2="9" y2="15.25" stroke="#F471FF" stroke-width="1.5"/>
<ellipse cx="4.99993" cy="20.5" rx="1.71429" ry="1.5" fill="#F471FF"/>
</svg>
