<svg width="21" height="20" viewBox="0 0 21 20" fill="none" xmlns="http://www.w3.org/2000/svg">
<path d="M19.0444 4.34521H14.6307V1.63781C14.6307 1.27945 14.2838 1 13.84 1C13.794 1 13.7479 1.00329 13.7019 1.00986C13.6592 1.00329 13.6164 1 13.5753 1H7.62959C7.61151 1 7.59507 1 7.57863 1.00164C7.5589 1 7.54082 1 7.52274 1C7.0789 1 6.73205 1.2811 6.73205 1.63781V4.34356H2.32C1.59178 4.34521 1 4.93699 1 5.66521V11.611C1 12.3112 1.54904 12.8849 2.23945 12.926V17.68C2.23945 18.4082 2.77041 19 3.42301 19H17.943C18.5956 19 19.1266 18.4082 19.1266 17.68V12.926C19.817 12.8833 20.366 12.3112 20.366 11.611V5.66521C20.3627 4.93699 19.771 4.34521 19.0444 4.34521ZM7.38959 1.68548C7.41918 1.67068 7.48329 1.6526 7.55233 1.65753C7.57205 1.65918 7.59014 1.65918 7.60986 1.65753C7.61644 1.65753 7.62301 1.65753 7.62959 1.65753H13.5753C13.5918 1.65753 13.6099 1.65918 13.6279 1.66411C13.674 1.67397 13.7216 1.67562 13.7677 1.66575C13.8515 1.64767 13.9386 1.66904 13.9731 1.68712V4.93699C13.9485 4.95014 13.9025 4.96493 13.84 4.96493C13.7775 4.96493 13.7315 4.95014 13.7068 4.93699V2.44329C13.7068 2.26082 13.5589 2.11452 13.3781 2.11452H7.98466C7.80384 2.11452 7.65589 2.26082 7.65589 2.44329V4.93534C7.63123 4.94849 7.5852 4.96329 7.52274 4.96329C7.46027 4.96329 7.41425 4.94849 7.38959 4.93534V1.68548ZM13.051 2.77205V4.34356H8.31342V2.77205H13.051ZM18.4674 17.68C18.4674 18.0449 18.2323 18.3425 17.9414 18.3425H3.42137C3.13205 18.3425 2.89534 18.0449 2.89534 17.68V12.9293H8.06027V13.5293C8.06027 14.2575 8.65205 14.8493 9.38027 14.8493H11.7342C12.4625 14.8493 13.0542 14.2575 13.0542 13.5293V12.9293H18.4674V17.68ZM8.71945 13.531V11.6734C8.71945 11.3085 9.01699 11.011 9.38192 11.011H11.7342C12.0992 11.011 12.3967 11.3085 12.3967 11.6734V13.531C12.3967 13.8959 12.0992 14.1934 11.7342 14.1934H9.38027C9.01534 14.1934 8.71945 13.8959 8.71945 13.531ZM19.7052 11.611C19.7052 11.9759 19.4077 12.2734 19.0427 12.2734H13.0542V11.6734C13.0542 10.9452 12.4625 10.3534 11.7342 10.3534H9.38027C8.65205 10.3534 8.06027 10.9452 8.06027 11.6734V12.2734H2.32C1.95507 12.2734 1.65753 11.9759 1.65753 11.611V5.66521C1.65753 5.30027 1.95507 5.00274 2.32 5.00274H6.73534C6.74849 5.35123 7.08877 5.62247 7.52274 5.62247C7.95836 5.62247 8.29863 5.35123 8.31014 5.00274H13.0526C13.0658 5.35123 13.406 5.62247 13.84 5.62247C14.2756 5.62247 14.6159 5.35123 14.6274 5.00274H19.0427C19.4077 5.00274 19.7052 5.30027 19.7052 5.66521V11.611Z" fill="#494949" stroke="#494949"/>
<rect x="5" y="5.5" width="11" height="2" fill="#F0F8FF"/>
<path d="M8 2.7C8 2.14771 8.44772 1.7 9 1.7H12.6C13.1523 1.7 13.6 2.14771 13.6 2.7V3.9H8V2.7Z" fill="#F0F8FF"/>
</svg>
